<svg width="1440" height="476" viewBox="0 0 1440 476" fill="none" xmlns="http://www.w3.org/2000/svg">
<g opacity="0.7">
<path d="M1224 268C1342.4 253.2 1430.67 170.5 1472 131L1485.5 281.5C1399.83 319 1211.5 392.7 1143.5 387.5C1058.5 381 599.5 280 567.5 267.5L498 249L567.5 251.5C581 251.5 739 262.5 782 265C938 262.5 1076 286.5 1224 268Z" fill="#F9B686"/>
<path d="M637 363C496.6 361 126.5 437.167 -41 475.5L-98 159C-69.5 150.333 7.5 136 87.5 148C194.5 160 401.5 237.5 496.5 249C585.3 269.8 767.167 284.557 847 289.336C956.515 288.343 1079.03 279.228 1179.5 253C1369.07 203.512 1468.88 130.664 1495.32 100.207C1453.51 148.5 1341.74 264.815 1227.5 345.5C1084.5 446.5 812.5 365.5 637 363Z" fill="#FAC16B" fill-opacity="0.5"/>
<path d="M755.5 174C674.3 174 218 58 -1.52588e-05 0H-46C-50.8334 84.3333 -138 285 -35 263C68 241 636 229.5 959.5 295C1218.3 347.4 1437 434.5 1514 471.5C1518.17 412.667 1524 295 1514 295C1189 327 796.5 174 755.5 174Z" fill="#51679B"/>
</g>
</svg>
