<svg xmlns="http://www.w3.org/2000/svg" viewBox="0 0 589.96 344.99"><defs><style>.cls-1{fill:#f9b686;}.cls-2{fill:#6a799b;}.cls-3{fill:#62b278;}</style></defs><g id="Layer_2" data-name="Layer 2"><g id="Layer_1-2" data-name="Layer 1"><path class="cls-1" d="M572,172.37S543.8,273.53,343.81,274.08-14.28,231.23,1,209.54c7.65-31,71.4-68.2,71.4-68.2s-70.8,55.25-60.9,66.37c5.41,6.07,69.52,26.11,145.06,35.92,38.09,5,79.37,11.3,117.3,12.4,24.64.71,45.32,0,68.85,0,59.43,0,122.85-10.85,163.2-31s58.65-49.59,58.65-49.59Z"/><path class="cls-1" d="M472,288.83s-64.9,59-165.19,56.05S97.34,294.73,97.34,294.73s153.39,35,187.31,38.18,74.18,3.31,110.62-8.68C444.76,308,472,288.83,472,288.83Z"/><path class="cls-2" d="M116.87,28.24c-1.24,2.45-2.92,10.32-5,23.48s-3,24.1-2.75,33.05q7.06-.58,14.56-.92,10.77-.54,21.59-1.27a104.18,104.18,0,0,0,14.38-2.77c6.22-1.55,10.48-2.32,12.76-2.24,8.14.28,12.31,4.12,12.49,11.6,0,1.47-1.08,3.3-3.34,5.44a17.6,17.6,0,0,1-9.1,4.28c-3.81.71-13,1.56-27.55,2.16-17.83.85-28.34,1.33-31.63,2.11s-5.22,1.65-5.8,2.69-1.09,6.14-1.5,15.29,1,68.49,1.14,74.34q.39,6.72.79,13.47c.21,7.33-2.19,10.33-7.19,8.88-3.1-.89-6-3-8.7-6.23a17.67,17.67,0,0,1-4.25-11c-.5-16.27.62-99.48,6.82-151.38,1.48-12.11,2.2-18.68,2.18-19.59a24.64,24.64,0,0,0-1.43-6.11,28.79,28.79,0,0,1-1.88-7.12c-.06-1.88.91-3.93,2.91-6.17s3.94-3.41,5.8-3.45L115.88,8c4.21-.1,12-1,23.46-2.81C158.76,2.13,172.1.29,179.36,0q9.54-.36,13.76,2.77c2.81,2.09,4.25,4.2,4.3,6.32a14.65,14.65,0,0,1-3.14,9.77Q191,23,187.17,23.08a17.44,17.44,0,0,1-3.85-.4,104.33,104.33,0,0,0-17.25-1.79,261.89,261.89,0,0,0-28.69,2.54C125.65,25,118.82,26.52,116.87,28.24Z"/><path class="cls-2" d="M179,200.17q-6.33,11.58-13.07,17.15c-4.5,3.73-8.72,5.15-12.66,4.37-2.26-.45-4.6-2.38-7-5.76s-3.7-8.06-3.85-14.05c-.12-4.91.77-11.92,2.69-21.14,1.61-7.7,2.38-13.2,2.3-16.43a4.07,4.07,0,0,1,4.6-2.73,5,5,0,0,1,3.5,2.14,6.61,6.61,0,0,1,1.37,3.68c.07,2.65-.69,6.32-2.25,11-3,9-4.35,16.87-4.18,23.68q.22,9.3,4.14,10c3.32.62,7.49-1.74,12.49-7.24s9.23-13.77,12.65-24.78c1.34-4.4,2.45-7.25,3.34-8.53a3.69,3.69,0,0,1,3.65-1.68q3.52.36,3.64,5.65a26.75,26.75,0,0,1-.88,4.18,98.41,98.41,0,0,0-2.54,23.9q.32,13.71,4.4,18.34c1.42,1.64,2.14,2.92,2.16,3.82,0,1.1-.65,2-2,2.7a6.31,6.31,0,0,1-3.78.79c-2.41-.37-4.41-2.72-6-7S179.2,211.88,179,204c0-.64,0-1.28-.05-1.92S179,200.82,179,200.17Z"/><path class="cls-2" d="M223.57,129.82c2.5.11,3.79,2,3.87,5.69.08,3.28-1.25,11.05-4,23.2a193.92,193.92,0,0,0-3.82,25.36,209.15,209.15,0,0,0-1,21.85,180.44,180.44,0,0,0,1.55,19.78,26.35,26.35,0,0,1,.27,2.72,7,7,0,0,1-1.65,5,4.21,4.21,0,0,1-3.7,1.72c-1.84-.21-3.14-1.69-3.91-4.39s-1.23-7-1.36-12.83c-.31-13.31.7-29.62,3-49.09s4.29-30.9,5.85-34.17S221.87,129.75,223.57,129.82Z"/><path class="cls-2" d="M254.06,130.76c2.5.05,3.8,1.94,3.89,5.69.08,3.33-1.24,11.25-4,23.66a202.7,202.7,0,0,0-3.81,25.9,216.68,216.68,0,0,0-1,22.26,187.37,187.37,0,0,0,1.57,20c.17,1.27.27,2.19.28,2.75a7.42,7.42,0,0,1-1.65,5.12,4.39,4.39,0,0,1-3.71,1.91c-1.85-.14-3.16-1.59-3.94-4.31s-1.23-7.07-1.37-13c-.32-13.54.69-30.2,3-50.08s4.27-31.57,5.84-34.93S252.36,130.73,254.06,130.76Z"/><path class="cls-2" d="M336.77,40.64q-5.28-2.22-5.28-11.39,0-7.18,24.49-14t42.68-6.87c13.45,0,24.13,3.21,32,9.63s11.92,14.91,12,25.58c.07,15.82-7.37,30.27-22.38,43.53s-35.31,23.44-60.92,29.8c-6.76,1.7-10.56,3.07-11.4,4.14s-1.49,7.63-2,19.69S342.7,221,342.7,225.67a15.77,15.77,0,0,1-2.67,9c-1.78,2.66-3.85,4-6.23,4-5.49,0-8.24-4.48-8.23-13.25,0-4.78,3.83-77.81,6.07-99.7s4.42-43.7,6.61-65.56a76.87,76.87,0,0,0,.14-9.51Q338.26,42.75,336.77,40.64ZM356,34.31a114.54,114.54,0,0,0-1.29,11.83q-1.28,15.36-3.22,33.94-1,9.74-1.93,21.13A137,137,0,0,0,403.8,80q23.61-15.87,23.52-33.8-.1-22.06-29.35-21.83Q378.81,24.53,356,34.31Z"/><path class="cls-2" d="M401.46,122.07q3.75-.3,3.93,5.33c.1,3.35-1.16,11.42-3.79,24.27A214.16,214.16,0,0,0,398,178.3,222.07,222.07,0,0,0,397.1,201a181.4,181.4,0,0,0,1.72,20q.27,1.88.3,2.73a8.74,8.74,0,0,1-1.62,5.47,5.46,5.46,0,0,1-3.7,2.6c-1.86.19-3.18-1-4-3.67s-1.29-7-1.47-13q-.63-20.59,2.65-51.39t5.59-36.1Q398.92,122.27,401.46,122.07Z"/><path class="cls-2" d="M451.47,197.23q-6.9,12.36-13.87,19.12t-12.91,7.57q-4,.56-7.08-3t-3.25-9.81q-.51-16,11.16-35.9c7.78-13.23,15.68-20.26,23.72-21.29q4.36-.56,6.69,4.88c.49,1.21,1.23,1.75,2.2,1.61,2.77-.38,4.2.64,4.28,3.1a35.4,35.4,0,0,1-.35,5.12q-2.21,17.94-2,25.15.5,14.38,5.37,16.38a3.4,3.4,0,0,1,2.4,3.07q.06,1.83-2.1,4.11A8.15,8.15,0,0,1,461.5,220q-4,.72-6.82-5.15T451.47,197.23ZM447.17,164c-4.58.61-9.74,6.23-15.49,17s-8.54,19.44-8.33,26c.15,4.65,1.55,6.81,4.2,6.44,3.83-.52,9-5.76,15.46-15.64s9.59-18.5,9.34-25.91Q452.07,163.34,447.17,164Z"/><path class="cls-2" d="M498.68,151.32q5.31-1.37,10-2.83a74.68,74.68,0,0,1,7.73-2q3.92-.72,5-.13A2.81,2.81,0,0,1,522.5,149c.11,3-1.77,5.08-5.65,6.09-5,1.3-9.55,2.63-13.74,4s-6.43,2.29-6.74,2.75-1.2,5.23-2.65,14.34-2.14,15-2.05,17.64q.22,6.38,1.8,8.18t4.57,1.15c3-.63,7-4,12.09-10.09,2-2.47,3.48-3.81,4.58-4.06q2.22-.5,2.31,2.1.15,4.08-6.77,12.24c-4.61,5.45-9.41,8.78-14.41,9.89-8.34,1.85-12.72-2.86-13.1-14q-.21-6,1.94-19.11c1.41-8.67,2.08-13.82,2-15.49,0-.58-.44-.8-1.27-.66l-5.37,1.42c-4.43.73-6.71-.93-6.85-4.94q-.12-3.42,2.94-3.88,5.36-.83,10.68-1.69a2.8,2.8,0,0,0,1.88-1.42c.53-.82,1.25-3.43,2.18-7.8s1.72-8.66,2.41-12.89,2.24-6.44,4.65-6.79a3.61,3.61,0,0,1,3.53,1.21,4.94,4.94,0,0,1,1.35,3q0,.79-1.57,8.52Z"/><path class="cls-2" d="M572.35,172.3c.12,3.59-2.79,8.79-8.75,15.7s-12.21,11.39-18.76,13.22q-8.24,2.29-12.92-1.83c-3.12-2.75-4.79-7.34-5-13.69-.37-10.68,2.58-21.6,8.87-32.54s13.35-17,21.17-18.69a7.18,7.18,0,0,1,6.37,1.3,7.45,7.45,0,0,1,2.65,5.76c.18,5.48-2.21,11.33-7.19,17.65a140.49,140.49,0,0,1-20.17,20.18c-1.75,1.43-2.59,2.94-2.54,4.53q.16,4.61,2.72,6.74t7.38.83c7.33-2,14.65-8.42,22-19,1.08-1.48,1.91-2.29,2.49-2.45C571.72,169.76,572.29,170.51,572.35,172.3Zm-35.84.7c14.19-12.71,21.16-21.66,21-27.16-.07-2.16-1-3-2.88-2.63-3.14.69-6.61,3.89-10.39,9.7A53.78,53.78,0,0,0,536.51,173Z"/><path class="cls-3" d="M539.33,110.58c0-.07,9.34-25.11,29.75-30.48,20.39-5.55,21.72-6.52,20.38-5.55C581.64,79.88,539.34,110.36,539.33,110.58Z"/><path class="cls-3" d="M540.07,111.45c0,.15,24-.53,36.7-19,12.76-18.27,14.13-19,12.77-18.1C581.58,79.41,540.08,111.21,540.07,111.45Z"/><path class="cls-3" d="M537.77,112.24a124.19,124.19,0,0,1-11,6.54c-4.72,2.32,0,2.23,0,2.22Q532.28,116.6,537.77,112.24Z"/></g></g></svg>